<svg xmlns="http://www.w3.org/2000/svg" viewBox="0 0 24 24" fill="#c0a062" stroke="#c0a062" stroke-width="2" stroke-linecap="round" stroke-linejoin="round">
  <path d="M22 12c-2.5-3-5-4.7-7.5-5.3C13.2 6.2 12 5.2 12 4c0-1.1.9-2 2-2 1.1 0 2 .9 2 2" />
  <path d="M11 12.3c-.8-1-2.2-1-3 0-1.2 1.2-1.2 3.2 0 4.5l3.8 3.8c.8.8 2.2.8 3 0l3.8-3.8c1.2-1.2 1.2-3.2 0-4.5-1.2-1.2-3.2-1.2-4.5 0" />
  <path d="M12 22V12" />
  <path d="M2 12c2.5-3 5-4.7 7.5-5.3C10.8 6.2 12 5.2 12 4c0-1.1-.9-2-2-2S8 2.9 8 4" />
</svg>